<svg width="32" height="32" viewBox="0 0 32 32" fill="none" xmlns="http://www.w3.org/2000/svg">
<g clip-path="url(#clip0_52_723)">
<path fill-rule="evenodd" clip-rule="evenodd" d="M0 15.36V15.36V16.64C0 23.8809 0.00297454 27.5021 2.24893 29.7511C4.49488 32 8.11907 32 15.36 32H16.64C23.8809 32 27.5021 31.997 29.7511 29.7511C32 27.5051 32 23.8809 32 16.64V16.64V15.36C32 8.11907 31.997 4.49786 29.7511 2.24893C27.5051 0 23.8809 0 16.64 0H15.36C8.11907 0 4.49786 0.00297667 2.24893 2.24893C0 4.49488 0 8.11906 0 15.36ZM19.6792 7.13073C18.7266 7.08757 18.423 7.07715 15.9999 7.07715C13.5769 7.07715 13.2732 7.08757 12.3207 7.13073C11.5805 7.14575 10.8483 7.28616 10.1551 7.54599C9.56225 7.77479 9.02384 8.12513 8.57449 8.57448C8.12514 9.02383 7.7748 9.56225 7.54599 10.1551C7.28616 10.8483 7.14575 11.5805 7.13073 12.3207C7.08757 13.2732 7.07715 13.5769 7.07715 15.9999C7.07715 18.423 7.08757 18.7266 7.13073 19.6792C7.14575 20.4193 7.28616 21.1516 7.54599 21.8448C7.7748 22.4376 8.12514 22.976 8.57449 23.4254C9.02384 23.8747 9.56225 24.2251 10.1551 24.4539C10.8483 24.7137 11.5805 24.8541 12.3207 24.8691C13.2732 24.9123 13.5769 24.9227 15.9999 24.9227C18.423 24.9227 18.7266 24.9123 19.6792 24.8691C20.4193 24.8541 21.1516 24.7137 21.8448 24.4539C22.4376 24.2251 22.976 23.8747 23.4254 23.4254C23.8747 22.976 24.2251 22.4376 24.4539 21.8448C24.7137 21.1516 24.8541 20.4193 24.8691 19.6792C24.9123 18.7266 24.9227 18.423 24.9227 15.9999C24.9227 13.5769 24.9123 13.2732 24.8691 12.3207C24.8541 11.5805 24.7137 10.8483 24.4539 10.1551C24.2251 9.56225 23.8747 9.02383 23.4254 8.57448C22.976 8.12513 22.4376 7.77479 21.8448 7.54599C21.1516 7.28616 20.4193 7.14575 19.6792 7.13073ZM15.9999 8.68459C18.3828 8.68459 18.6641 8.69352 19.6048 8.73668C20.1711 8.7432 20.732 8.84743 21.2628 9.04478C21.6475 9.19296 21.9968 9.42012 22.2883 9.71159C22.5798 10.0031 22.8069 10.3524 22.9551 10.7371C23.1525 11.2679 23.2567 11.8288 23.2632 12.3951C23.3064 13.3358 23.3153 13.6171 23.3153 15.9999C23.3153 18.3828 23.3064 18.6641 23.2632 19.6048C23.2567 20.1711 23.1525 20.732 22.9551 21.2628C22.8069 21.6475 22.5798 21.9968 22.2883 22.2883C21.9968 22.5798 21.6475 22.8069 21.2628 22.9551C20.732 23.1525 20.1711 23.2567 19.6048 23.2632C18.6641 23.3064 18.3828 23.3153 15.9999 23.3153C13.6171 23.3153 13.3358 23.3064 12.3951 23.2632C11.8288 23.2567 11.2679 23.1525 10.7371 22.9551C10.3524 22.8069 10.0031 22.5798 9.7116 22.2883C9.42012 21.9968 9.19296 21.6475 9.04478 21.2628C8.84743 20.732 8.7432 20.1711 8.73669 19.6048C8.69352 18.6641 8.68459 18.3828 8.68459 15.9999C8.68459 13.6171 8.69352 13.3358 8.73669 12.3951C8.7432 11.8288 8.84743 11.2679 9.04478 10.7371C9.19296 10.3524 9.42012 10.0031 9.7116 9.71159C10.0031 9.42012 10.3524 9.19296 10.7371 9.04478C11.2679 8.84743 11.8288 8.7432 12.3951 8.73668C13.3358 8.69352 13.6171 8.68459 15.9999 8.68459ZM17.6537 18.472C17.1642 18.7991 16.5887 18.9737 15.9999 18.9737C15.2105 18.9737 14.4533 18.6601 13.8951 18.1018C13.3368 17.5436 13.0232 16.7864 13.0232 15.997C13.0232 15.4082 13.1978 14.8327 13.5249 14.3432C13.852 13.8536 14.3169 13.4721 14.8608 13.2468C15.4047 13.0215 16.0032 12.9626 16.5807 13.0774C17.1581 13.1923 17.6885 13.4758 18.1048 13.8921C18.5211 14.3084 18.8046 14.8388 18.9195 15.4162C19.0343 15.9937 18.9754 16.5922 18.7501 17.1361C18.5248 17.68 18.1433 18.1449 17.6537 18.472ZM18.546 12.1896C17.7923 11.686 16.9063 11.4172 15.9999 11.4172C14.7845 11.4172 13.6189 11.9001 12.7595 12.7595C12.3339 13.185 11.9964 13.6902 11.7661 14.2462C11.5358 14.8022 11.4172 15.3981 11.4172 15.9999C11.4172 16.9063 11.686 17.7923 12.1896 18.546C12.6931 19.2996 13.4088 19.8869 14.2462 20.2338C15.0836 20.5807 16.005 20.6714 16.894 20.4946C17.7829 20.3178 18.5995 19.8813 19.2404 19.2404C19.8813 18.5995 20.3178 17.7829 20.4946 16.894C20.6714 16.005 20.5807 15.0836 20.2338 14.2462C19.8869 13.4088 19.2996 12.6931 18.546 12.1896ZM21.6538 11.8325C21.7715 11.6563 21.8344 11.4491 21.8344 11.2371C21.8344 10.9529 21.7215 10.6804 21.5205 10.4794C21.3195 10.2784 21.0469 10.1655 20.7627 10.1655C20.5508 10.1655 20.3436 10.2284 20.1674 10.3461C19.9911 10.4639 19.8538 10.6312 19.7727 10.8271C19.6916 11.0229 19.6703 11.2383 19.7117 11.4462C19.753 11.6541 19.8551 11.845 20.005 11.9949C20.1548 12.1448 20.3458 12.2468 20.5537 12.2882C20.7615 12.3295 20.977 12.3083 21.1728 12.2272C21.3686 12.1461 21.536 12.0087 21.6538 11.8325Z" fill="white"/>
</g>
<defs>
<clipPath id="clip0_52_723">
<rect width="32" height="32" fill="white"/>
</clipPath>
</defs>
</svg>
