<svg width="32" height="32" viewBox="0 0 32 32" fill="none" xmlns="http://www.w3.org/2000/svg">
<g clip-path="url(#clip0_52_731)">
<path fill-rule="evenodd" clip-rule="evenodd" d="M0 15.36V15.36V16.64C0 23.8809 0.00297451 27.5021 2.24893 29.7511C4.49488 32 8.11906 32 15.36 32H15.36H16.64C23.8809 32 27.5021 31.997 29.7511 29.7511C32 27.5051 32 23.8809 32 16.64V16.64V15.36C32 8.11907 31.997 4.49786 29.7511 2.24893C27.5051 0 23.8809 0 16.64 0H16.64H15.36C8.11906 0 4.49786 0.00297451 2.24893 2.24893C0 4.49488 0 8.11907 0 15.36ZM11.9412 8.9706C11.9412 10.0589 11.0589 10.9412 9.9706 10.9412C8.88227 10.9412 8 10.0589 8 8.9706C8 7.88227 8.88227 7 9.9706 7C11.0589 7 11.9412 7.88227 11.9412 8.9706ZM20.3743 12.2614C19.0601 12.1513 17.856 12.9178 17.1981 14.0132V12.4802H13.9133V23.4242H17.3083V17.9514C17.3083 16.5271 17.6357 15.1042 19.392 15.1042C21.1438 15.1042 21.1438 16.7331 21.1438 18.0501V18.0601V23.4242H24.5388L24.4287 17.5094C24.4287 14.5565 23.878 12.2614 20.3743 12.2614ZM11.7224 12.4757H8.32744V23.4272H11.7224V12.4757Z" fill="white"/>
</g>
<defs>
<clipPath id="clip0_52_731">
<rect width="32" height="32" fill="white"/>
</clipPath>
</defs>
</svg>
