<svg width="96" height="96" viewBox="0 0 96 96" fill="none" xmlns="http://www.w3.org/2000/svg">
<g clip-path="url(#clip0_31_703)">
<path d="M48 96C21.4912 96 0 74.5088 0 48C0 21.4912 21.4912 0 48 0C74.5088 0 96 21.4912 96 48C96 74.5088 74.5088 96 48 96ZM48 89.6C70.976 89.6 89.6 70.976 89.6 48C89.6 25.024 70.976 6.4 48 6.4C25.024 6.4 6.4 25.024 6.4 48C6.4 70.976 25.024 89.6 48 89.6ZM31.0624 45.7376L41.6 56.2752L64.9376 32.9376C65.5411 32.3547 66.3495 32.0322 67.1885 32.0394C68.0275 32.0467 68.8301 32.3833 69.4234 32.9766C70.0167 33.5699 70.3533 34.3725 70.3606 35.2115C70.3679 36.0505 70.0453 36.8589 69.4624 37.4624L44.0864 62.8384C43.4264 63.4979 42.5315 63.8684 41.5984 63.8684C40.6653 63.8684 39.7704 63.4979 39.1104 62.8384L26.5344 50.2624C25.9344 49.6619 25.5975 48.8477 25.5978 47.9989C25.5981 47.15 25.9355 46.336 26.536 45.736C27.1364 45.136 27.9507 44.7991 28.7995 44.7994C29.6484 44.7997 30.4624 45.1371 31.0624 45.7376Z" fill="white"/>
</g>
<defs>
<clipPath id="clip0_31_703">
<rect width="96" height="96" fill="white"/>
</clipPath>
</defs>
</svg>
