<svg width="32" height="32" viewBox="0 0 32 32" fill="none" xmlns="http://www.w3.org/2000/svg">
<g clip-path="url(#clip0_52_727)">
<path fill-rule="evenodd" clip-rule="evenodd" d="M0 15.36V15.36V16.64C0 23.8809 0.00297454 27.5021 2.24893 29.7511C4.49488 32 8.11906 32 15.36 32H15.36H16.64C23.8809 32 27.5021 31.997 29.7511 29.7511C32 27.5051 32 23.8809 32 16.64V16.64V15.36C32 8.11907 31.997 4.49786 29.7511 2.24893C27.5051 0 23.8809 0 16.64 0H16.64H15.36C8.11907 0 4.49786 0.00297454 2.24893 2.24893C0 4.49488 0 8.11906 0 15.36ZM20.5935 9.47387C20.9306 9.97671 21.3665 10.4056 21.8748 10.7343C22.5974 11.2128 23.4447 11.4679 24.3113 11.4681V14.6532C22.7097 14.6553 21.1479 14.1545 19.8462 13.2214V19.7702C19.843 21.3381 19.218 22.8406 18.1083 23.9481C16.9985 25.0556 15.4947 25.6776 13.9269 25.6776C12.7205 25.7015 11.5362 25.3516 10.5364 24.6759C10.5108 24.6578 10.4864 24.641 10.4623 24.6244C10.3996 24.5814 10.3395 24.5401 10.2685 24.4809C8.29194 22.9806 7.53733 20.3656 8.28152 17.9842C8.65905 16.7829 9.41055 15.7337 10.4264 14.9897C11.4422 14.2456 12.6692 13.8456 13.9284 13.848C14.1926 13.8505 14.4563 13.8723 14.7172 13.9135V17.2028C14.4593 17.1226 14.1911 17.0804 13.921 17.0778C13.319 17.0815 12.7356 17.2863 12.2632 17.6595C11.7909 18.0326 11.4567 18.5529 11.3138 19.1377C11.1709 19.7224 11.2273 20.3381 11.4742 20.8871C11.7211 21.4361 12.1444 21.8869 12.6767 22.168C13.0666 22.365 13.4975 22.467 13.9344 22.4657C14.6327 22.4642 15.3034 22.1926 15.8059 21.7076C16.3084 21.2225 16.6036 20.5619 16.6298 19.864V7H19.8477C19.8446 7.27139 19.867 7.54248 19.9146 7.80967C20.0255 8.40477 20.2565 8.97103 20.5935 9.47387Z" fill="white"/>
</g>
<defs>
<clipPath id="clip0_52_727">
<rect width="32" height="32" fill="white"/>
</clipPath>
</defs>
</svg>
