<svg width="145" height="56" viewBox="0 0 145 56" fill="none" xmlns="http://www.w3.org/2000/svg">
<path d="M6.31739 27.9167H16.6957V32.5211H0V3.56726H6.31739V27.9167Z" fill="white"/>
<path d="M20.577 20.9478C20.577 18.6249 21.0807 16.5648 22.0887 14.7674C23.0964 12.9697 24.4651 11.5871 26.1947 10.6191C27.9247 9.65119 29.8573 9.16736 31.9931 9.16736C33.8582 9.16736 35.4904 9.51295 36.8891 10.2044C38.2879 10.8956 39.4085 11.7667 40.2509 12.8178V9.54066H46.6132V32.5212H40.2509V29.1612C39.4386 30.2397 38.318 31.1315 36.8891 31.8367C35.4602 32.5419 33.8131 32.8945 31.9482 32.8945C29.8422 32.8945 27.9247 32.3967 26.1947 31.4013C24.4651 30.4056 23.0964 29.0023 22.0887 27.1909C21.0807 25.3795 20.577 23.2984 20.577 20.9478ZM40.2509 21.0309C40.2509 19.6206 39.9501 18.4106 39.3483 17.4012C38.7468 16.3918 37.9345 15.6175 36.9117 15.0783C35.889 14.5391 34.791 14.2696 33.6177 14.2696C32.4444 14.2696 31.3615 14.5323 30.3688 15.0576C29.3762 15.5831 28.5714 16.3504 27.9548 17.3598C27.3379 18.3691 27.0296 19.5652 27.0296 20.9478C27.0296 22.3307 27.3379 23.5405 27.9548 24.5775C28.5714 25.6146 29.3837 26.4096 30.3914 26.9626C31.3991 27.5158 32.4745 27.7923 33.6177 27.7923C34.791 27.7923 35.889 27.5228 36.9117 26.9836C37.9345 26.4443 38.7468 25.67 39.3483 24.6604C39.9501 23.651 40.2509 22.4413 40.2509 21.0309Z" fill="white"/>
<path d="M78.2004 9.54065L62.7229 43.3891H55.9996L61.4144 31.9405L51.3969 9.54065H58.4814L64.934 25.5939L71.4769 9.54065H78.2004Z" fill="white"/>
<path d="M88.8512 27.7508H99.9953V32.5212H81.6753V27.8337L92.5955 14.311H81.7205V9.54065H99.8609V14.2281L88.8512 27.7508Z" fill="white"/>
<path d="M109.562 6.80303C108.449 6.80303 107.524 6.47788 106.788 5.8281C106.051 5.17832 105.683 4.36933 105.683 3.40139C105.683 2.43371 106.051 1.62471 106.788 0.974936C107.524 0.324889 108.449 0 109.562 0C110.674 0 111.602 0.324889 112.338 0.974936C113.075 1.62471 113.443 2.43371 113.443 3.40139C113.443 4.36933 113.075 5.17832 112.338 5.8281C111.602 6.47788 110.674 6.80303 109.562 6.80303ZM112.677 9.54066V32.5212H106.358V9.54066H112.677Z" fill="white" fill-opacity="0.6"/>
<path d="M131.492 32.8945C129.087 32.8945 126.92 32.4037 124.996 31.422C123.071 30.4401 121.558 29.0507 120.461 27.253C119.362 25.4556 118.813 23.3815 118.813 21.0309C118.813 18.6803 119.378 16.6062 120.504 14.8088C121.633 13.0112 123.176 11.6215 125.13 10.6398C127.087 9.65819 129.267 9.16736 131.672 9.16736C134.081 9.16736 136.261 9.65819 138.217 10.6398C140.171 11.6215 141.714 13.0112 142.841 14.8088C143.969 16.6062 144.534 18.6803 144.534 21.0309C144.534 23.3815 143.953 25.4556 142.798 27.253C141.639 29.0507 140.075 30.4401 138.104 31.422C136.134 32.4037 133.93 32.8945 131.492 32.8945ZM131.492 27.8337C132.637 27.8337 133.712 27.5779 134.72 27.0664C135.726 26.5548 136.532 25.7875 137.134 24.7642C137.736 23.7411 138.035 22.4967 138.035 21.0309C138.035 18.8463 137.411 17.1661 136.164 15.9908C134.914 14.8158 133.387 14.2281 131.584 14.2281C129.777 14.2281 128.267 14.8158 127.049 15.9908C125.829 17.1661 125.221 18.8463 125.221 21.0309C125.221 23.2156 125.815 24.8954 127.003 26.0707C128.191 27.246 129.689 27.8337 131.492 27.8337Z" fill="white"/>
<path d="M9.63428 51.2428H10.8795V54.8605H12.9804V55.9066H9.63428V51.2428Z" fill="white"/>
<path d="M17.7972 55.0004H15.9353L15.5895 55.9066H14.3188L16.2625 51.2428H17.4887L19.4387 55.9066H18.143L17.7972 55.0004ZM17.4323 54.0279L16.8661 52.5354L16.3002 54.0279H17.4323Z" fill="white"/>
<path d="M23.1984 54.2344V55.9066H21.9532V54.2144L20.2739 51.2428H21.5886L22.6325 53.0949L23.6765 51.2428H24.884L23.1984 54.2344Z" fill="white"/>
<path d="M29.6812 51.2428H31.7627C32.2452 51.2428 32.6728 51.3383 33.046 51.5295C33.4191 51.7205 33.7085 51.9914 33.914 52.3422C34.1194 52.6931 34.2221 53.1038 34.2221 53.5749C34.2221 54.0456 34.1194 54.4564 33.914 54.8072C33.7085 55.158 33.4191 55.4292 33.046 55.6202C32.6728 55.8112 32.2452 55.9066 31.7627 55.9066H29.6812V51.2428ZM31.7126 54.8539C32.0898 54.8539 32.3929 54.7406 32.6215 54.5141C32.8497 54.2876 32.9642 53.9745 32.9642 53.5749C32.9642 53.1749 32.8497 52.8618 32.6215 52.6353C32.3929 52.4088 32.0898 52.2956 31.7126 52.2956H30.9264V54.8539H31.7126Z" fill="white"/>
<path d="M38.4223 56C37.9569 56 37.5387 55.8957 37.1675 55.6869C36.7966 55.4782 36.5053 55.1892 36.2935 54.8207C36.0817 54.4521 35.9758 54.0368 35.9758 53.575C35.9758 53.1128 36.0817 52.6976 36.2935 52.329C36.5053 51.9604 36.7966 51.6718 37.1675 51.4627C37.5387 51.254 37.9569 51.1497 38.4223 51.1497C38.8876 51.1497 39.3061 51.254 39.677 51.4627C40.0482 51.6718 40.3396 51.9604 40.5513 52.329C40.7631 52.6976 40.869 53.1128 40.869 53.575C40.869 54.0368 40.7631 54.4521 40.5513 54.8207C40.3396 55.1892 40.0482 55.4782 39.677 55.6869C39.3061 55.8957 38.8876 56 38.4223 56ZM38.4223 54.9073C38.6445 54.9073 38.8458 54.8518 39.0262 54.7407C39.2066 54.6297 39.3489 54.4733 39.4538 54.2709C39.5588 54.0689 39.6111 53.837 39.6111 53.575C39.6111 53.3127 39.5588 53.0808 39.4538 52.8787C39.3489 52.6767 39.2066 52.52 39.0262 52.409C38.8458 52.2979 38.6445 52.2424 38.4223 52.2424C38.2 52.2424 37.9987 52.2979 37.8186 52.409C37.6383 52.52 37.4956 52.6767 37.391 52.8787C37.2861 53.0808 37.2338 53.3127 37.2338 53.575C37.2338 53.837 37.2861 54.0689 37.391 54.2709C37.4956 54.4733 37.6383 54.6297 37.8186 54.7407C37.9987 54.8518 38.2 54.9073 38.4223 54.9073Z" fill="white"/>
<path d="M49.6041 51.2428L48.1762 55.9066H46.8428L46.0002 53.0683L45.1195 55.9066H43.7862L42.3586 51.2428H43.6416L44.5283 54.221L45.4594 51.2428H46.6038L47.4908 54.2477L48.4152 51.2428H49.6041Z" fill="white"/>
<path d="M55.5652 51.2428V55.9066H54.5403L52.5967 53.4217V55.9066H51.3765V51.2428H52.4017L54.3453 53.7281V51.2428H55.5652Z" fill="white"/>
<path d="M63.878 55.0004H62.0162L61.6703 55.9066H60.4L62.3433 51.2428H63.5699L65.5195 55.9066H64.2239L63.878 55.0004ZM63.5131 54.0279L62.9473 52.5354L62.3811 54.0279H63.5131Z" fill="white"/>
<path d="M71.3866 51.2428V55.9066H70.3614L68.4181 53.4217V55.9066H67.1979V51.2428H68.2231L70.1664 53.7281V51.2428H71.3866Z" fill="white"/>
<path d="M73.5934 51.2428H75.6749C76.1571 51.2428 76.5851 51.3383 76.9582 51.5295C77.3313 51.7205 77.6204 51.9914 77.8262 52.3422C78.0316 52.6931 78.1343 53.1038 78.1343 53.5749C78.1343 54.0456 78.0316 54.4564 77.8262 54.8072C77.6204 55.158 77.3313 55.4292 76.9582 55.6202C76.5851 55.8112 76.1571 55.9066 75.6749 55.9066H73.5934V51.2428ZM75.6248 54.8539C76.0021 54.8539 76.3052 54.7406 76.5337 54.5141C76.762 54.2876 76.8764 53.9745 76.8764 53.5749C76.8764 53.1749 76.762 52.8618 76.5337 52.6353C76.3052 52.4088 76.0021 52.2956 75.6248 52.2956H74.8386V54.8539H75.6248Z" fill="white"/>
<path d="M90.175 51.2428L88.7484 55.9066H87.4169L86.5737 53.0683L85.6924 55.9066H84.3587L82.9312 51.2428H84.2141L85.0995 54.221L86.0316 51.2428H87.176L88.0637 54.2477L88.9893 51.2428H90.175Z" fill="white"/>
<path d="M94.1123 56C93.6463 56 93.2278 55.8957 92.8569 55.6869C92.486 55.4782 92.1943 55.1892 91.9851 54.8207C91.7727 54.4521 91.6649 54.0368 91.6649 53.575C91.6649 53.1128 91.7727 52.6976 91.9851 52.329C92.1943 51.9604 92.486 51.6718 92.8569 51.4627C93.2278 51.254 93.6463 51.1497 94.1123 51.1497C94.5783 51.1497 94.9968 51.254 95.3677 51.4627C95.7386 51.6718 96.0302 51.9604 96.2426 52.329C96.4519 52.6976 96.5597 53.1128 96.5597 53.575C96.5597 54.0368 96.4519 54.4521 96.2426 54.8207C96.0302 55.1892 95.7386 55.4782 95.3677 55.6869C94.9968 55.8957 94.5783 56 94.1123 56ZM94.1123 54.9073C94.3342 54.9073 94.5371 54.8518 94.7178 54.7407C94.8953 54.6297 95.038 54.4733 95.1426 54.2709C95.2504 54.0689 95.3011 53.837 95.3011 53.575C95.3011 53.3127 95.2504 53.0808 95.1426 52.8787C95.038 52.6767 94.8953 52.52 94.7178 52.409C94.5371 52.2979 94.3342 52.2424 94.1123 52.2424C93.8904 52.2424 93.6907 52.2979 93.51 52.409C93.3293 52.52 93.1866 52.6767 93.082 52.8787C92.9774 53.0808 92.9235 53.3127 92.9235 53.575C92.9235 53.837 92.9774 54.0689 93.082 54.2709C93.1866 54.4733 93.3293 54.6297 93.51 54.7407C93.6907 54.8518 93.8904 54.9073 94.1123 54.9073Z" fill="white"/>
<path d="M100.465 54.6673H99.7837V55.9066H98.541V51.2428H100.551C100.95 51.2428 101.296 51.3129 101.591 51.4528C101.882 51.5927 102.111 51.7925 102.269 52.0523C102.428 52.3121 102.507 52.6176 102.507 52.9684C102.507 53.3059 102.434 53.6003 102.285 53.8512C102.136 54.1021 101.924 54.2987 101.648 54.4409L102.596 55.9066H101.264L100.465 54.6673ZM101.252 52.9684C101.252 52.7508 101.185 52.582 101.055 52.4621C100.925 52.3422 100.732 52.2823 100.478 52.2823H99.7837V53.6482H100.478C100.732 53.6482 100.925 53.5892 101.055 53.4715C101.185 53.3538 101.252 53.186 101.252 52.9684Z" fill="white"/>
<path d="M106.219 54.2144L105.753 54.7406V55.9066H104.52V51.2428H105.753V53.1815L107.456 51.2428H108.828L107.031 53.3081L108.923 55.9066H107.475L106.219 54.2144Z" fill="white"/>
<path d="M117.267 54.8872V55.9066H113.732V51.2428H117.185V52.2623H114.966V53.0483H116.922V54.0345H114.966V54.8872H117.267Z" fill="white"/>
<path d="M122.235 55.0004H120.374L120.025 55.9066H118.757L120.701 51.2428H121.927L123.877 55.9066H122.58L122.235 55.0004ZM121.87 54.0279L121.303 52.5354L120.739 54.0279H121.87Z" fill="white"/>
<path d="M127.101 56C126.746 56 126.397 55.9534 126.064 55.8601C125.728 55.7669 125.456 55.6425 125.246 55.4871L125.655 54.5142C125.852 54.6519 126.08 54.7629 126.34 54.8473C126.6 54.9317 126.857 54.9739 127.107 54.9739C127.586 54.9739 127.824 54.8473 127.824 54.5942C127.824 54.4609 127.757 54.362 127.621 54.2976C127.485 54.2332 127.266 54.1656 126.962 54.0946C126.632 54.0191 126.356 53.9379 126.131 53.8513C125.909 53.7647 125.719 53.6261 125.56 53.4351C125.402 53.2438 125.323 52.9863 125.323 52.6621C125.323 52.3779 125.395 52.1213 125.541 51.8926C125.687 51.6639 125.906 51.4827 126.198 51.3495C126.489 51.2163 126.847 51.1497 127.272 51.1497C127.561 51.1497 127.846 51.1842 128.125 51.2531C128.407 51.3219 128.654 51.4228 128.87 51.5563L128.483 52.5355C128.065 52.2957 127.659 52.1758 127.266 52.1758C127.019 52.1758 126.838 52.2145 126.724 52.2922C126.61 52.37 126.553 52.4711 126.553 52.5955C126.553 52.7198 126.622 52.8131 126.755 52.8752C126.889 52.9374 127.104 53.0018 127.402 53.0684C127.738 53.1439 128.017 53.2251 128.236 53.3117C128.458 53.3983 128.648 53.536 128.81 53.7247C128.971 53.9135 129.051 54.1701 129.051 54.4943C129.051 54.774 128.978 55.0272 128.832 55.2537C128.683 55.4805 128.464 55.6612 128.169 55.7967C127.878 55.9321 127.519 56 127.101 56Z" fill="white"/>
<path d="M133.213 54.2344V55.9066H131.967V54.2144L130.29 51.2428H131.603L132.649 53.0949L133.692 51.2428H134.9L133.213 54.2344Z" fill="white"/>
</svg>
